# Hierarchical Translation and Rotation (.htr) file
# Generated by EVaRT
[Header]
FileType htr
DataType HTRS
FileVersion 1
NumSegments 23
NumFrames 6
DataFrameRate 120
EulerRotationOrder ZYX
CalibrationUnits mm
RotationUnits Degrees
GlobalAxisofGravity Y
BoneLengthAxis Y
ScaleFactor 1
[SegmentNames&Hierarchy]
#CHILD            PARENT
DaveRoot          GLOBAL
Spine1            DaveRoot
Spine2            Spine1
Spine3            Spine2
Spine4            Spine3
Neck              Spine4
Head              Neck
LClavicle         Spine4
LUpperArm         LClavicle
LLowerArm         LUpperArm
LHand             LLowerArm
RClavicle         Spine4
RUpperArm         RClavicle
RLowerArm         RUpperArm
RHand             RLowerArm
RUpperLeg         DaveRoot
RLowerLeg         RUpperLeg
RFoot             RLowerLeg
RToes             RFoot
LUpperLeg         DaveRoot
LLowerLeg         LUpperLeg
LFoot             LLowerLeg
LToes             LFoot
[BasePosition]
#SegmentName      Tx   Ty   Tz   Rx   Ry   Rz   BoneLength
DaveRoot          30.502683	1014.050144	-392.030244	16.346492	-1.112010	-1.464339	100.000000
Spine1            0.000000	100.000000	0.000000	-16.708095	0.289044	-0.213389	100.000000
Spine2            0.000000	100.000000	0.000000	4.757952	0.249599	-0.116624	100.000000
Spine3            0.000000	100.000000	0.000000	11.084253	0.260929	-0.088411	100.000000
Spine4            0.000000	100.000000	0.000000	12.228282	1.332274	1.443083	100.000000
Neck              0.000000	100.000000	0.000000	10.147668	18.171820	1.381874	80.000000
Head              0.000000	80.000000	0.000000	-46.518491	-1.401195	-5.185409	200.000000
LClavicle         0.000000	100.000000	0.000000	-3.689620	-1.992124	-101.831237	200.000000
LUpperArm         0.000000	200.000000	0.000000	-0.284445	-3.207106	1.762499	300.000000
LLowerArm         0.000000	300.000000	0.000000	9.834184	2.175812	1.895763	200.000000
LHand             0.000000	200.000000	0.000000	-2.090742	-1.768569	8.793625	120.000000
RClavicle         0.000000	100.000000	0.000000	-0.558465	-3.870894	107.984856	200.000000
RUpperArm         0.000000	200.000000	0.000000	6.860362	-6.098052	-15.811317	300.000000
RLowerArm         0.000000	300.000000	0.000000	5.698581	-3.682026	-7.348670	200.000000
RHand             0.000000	200.000000	0.000000	-4.626921	6.468423	-3.971303	120.000000
RUpperLeg         -115.911102	-10.000000	31.058285	22.974686	25.481186	-170.503396	530.000000
RLowerLeg         0.000000	530.000000	0.000000	-7.725558	0.479387	-2.520024	460.000000
RFoot             0.000000	460.000000	0.000000	81.786251	-5.006629	-0.462861	130.000000
RToes             0.000000	130.000000	0.000000	20.181248	0.005479	-0.002881	100.000000
LUpperLeg         115.911102	-10.000000	31.058285	21.582405	10.065134	-177.228489	530.000000
LLowerLeg         0.000000	530.000000	0.000000	-4.243927	-3.275937	3.046484	460.000000
LFoot             0.000000	460.000000	0.000000	77.706358	-14.203819	16.055021	130.000000
LToes             0.000000	130.000000	0.000000	27.168776	-0.000000	-0.000086	100.000000
#Beginning of Data.
[DaveRoot]
#Fr	Tx	Ty	Tz	Rx	Ry	Rz	SF
412	-1069.354125	-449.321833	97.896160	49.646907	10.564471	-1.184412	1.000000	
413	-1070.366598	-455.411518	96.901092	49.106004	10.503526	-1.120302	1.000000	
414	-1070.533628	-459.702337	98.245895	49.002602	10.606296	-1.158903	1.000000	
415	-1071.410820	-465.566112	97.395331	48.540261	10.510390	-1.091594	1.000000	
416	-1071.624304	-469.808446	98.666048	48.466872	10.556598	-1.088816	1.000000	
417	-1072.542462	-475.527578	98.011789	48.009770	10.463735	-1.015093	1.000000	
[Spine1]
#Fr	Tx	Ty	Tz	Rx	Ry	Rz	SF
412	0.000000	0.000000	0.000000	5.978786	-0.433611	-1.970198	1.000000	
413	0.000000	0.000000	0.000000	5.740262	-0.113162	-2.004415	1.000000	
414	0.000000	0.000000	0.000000	6.007930	-0.269870	-1.850225	1.000000	
415	0.000000	0.000000	0.000000	5.751728	0.008600	-1.901420	1.000000	
416	0.000000	0.000000	0.000000	5.964636	-0.171025	-1.812135	1.000000	
417	0.000000	0.000000	0.000000	5.724241	0.044727	-1.876553	1.000000	
[Spine2]
#Fr	Tx	Ty	Tz	Rx	Ry	Rz	SF
412	0.000000	0.000000	0.000000	5.978786	-0.433611	-1.970198	1.000000	
413	0.000000	0.000000	0.000000	5.740262	-0.113162	-2.004415	1.000000	
414	0.000000	0.000000	0.000000	6.007930	-0.269870	-1.850225	1.000000	
415	0.000000	0.000000	0.000000	5.751728	0.008600	-1.901420	1.000000	
416	0.000000	0.000000	0.000000	5.964636	-0.171025	-1.812135	1.000000	
417	0.000000	0.000000	0.000000	5.724241	0.044727	-1.876553	1.000000	
[Spine3]
#Fr	Tx	Ty	Tz	Rx	Ry	Rz	SF
412	0.000000	0.000000	0.000000	5.978786	-0.433611	-1.970198	1.000000	
413	0.000000	0.000000	0.000000	5.740262	-0.113162	-2.004415	1.000000	
414	0.000000	0.000000	0.000000	6.007930	-0.269870	-1.850225	1.000000	
415	0.000000	0.000000	0.000000	5.751728	0.008600	-1.901420	1.000000	
416	0.000000	0.000000	0.000000	5.964636	-0.171025	-1.812135	1.000000	
417	0.000000	0.000000	0.000000	5.724241	0.044727	-1.876553	1.000000	
[Spine4]
#Fr	Tx	Ty	Tz	Rx	Ry	Rz	SF
412	0.000000	0.000000	0.000000	5.978786	-0.433611	-1.970198	1.000000	
413	0.000000	0.000000	0.000000	5.740262	-0.113162	-2.004415	1.000000	
414	0.000000	0.000000	0.000000	6.007930	-0.269870	-1.850225	1.000000	
415	0.000000	0.000000	0.000000	5.751728	0.008600	-1.901420	1.000000	
416	0.000000	0.000000	0.000000	5.964636	-0.171025	-1.812135	1.000000	
417	0.000000	0.000000	0.000000	5.724241	0.044727	-1.876553	1.000000	
[Neck]
#Fr	Tx	Ty	Tz	Rx	Ry	Rz	SF
412	0.000000	0.000000	0.000000	-21.302020	-7.054464	-0.703852	1.000000	
413	0.000000	0.000000	0.000000	-19.965748	-7.155351	-0.201376	1.000000	
414	0.000000	0.000000	0.000000	-21.035082	-7.281136	-1.014883	1.000000	
415	0.000000	0.000000	0.000000	-19.792123	-7.298668	-0.558499	1.000000	
416	0.000000	0.000000	0.000000	-20.756338	-7.290266	-1.278971	1.000000	
417	0.000000	0.000000	0.000000	-19.604875	-7.247371	-0.847543	1.000000	
[Head]
#Fr	Tx	Ty	Tz	Rx	Ry	Rz	SF
412	0.000000	0.000000	0.000000	-21.302020	-7.054464	-0.703852	1.000000	
413	0.000000	0.000000	0.000000	-19.965748	-7.155351	-0.201376	1.000000	
414	0.000000	0.000000	0.000000	-21.035082	-7.281136	-1.014883	1.000000	
415	0.000000	0.000000	0.000000	-19.792123	-7.298668	-0.558499	1.000000	
416	0.000000	0.000000	0.000000	-20.756338	-7.290266	-1.278971	1.000000	
417	0.000000	0.000000	0.000000	-19.604875	-7.247371	-0.847543	1.000000	
[LClavicle]
#Fr	Tx	Ty	Tz	Rx	Ry	Rz	SF
412	0.000000	0.000000	0.000000	23.713885	-4.698579	7.933787	1.000000	
413	0.000000	0.000000	0.000000	31.051169	-7.615302	9.783736	1.000000	
414	0.000000	0.000000	0.000000	24.023582	-4.765185	7.927973	1.000000	
415	0.000000	0.000000	0.000000	30.471352	-7.293800	9.546930	1.000000	
416	0.000000	0.000000	0.000000	23.842815	-4.640376	7.744041	1.000000	
417	0.000000	0.000000	0.000000	29.434120	-6.719827	9.086322	1.000000	
[LUpperArm]
#Fr	Tx	Ty	Tz	Rx	Ry	Rz	SF
412	0.000000	0.000000	0.000000	63.540793	-25.293554	-59.312979	1.000000	
413	0.000000	0.000000	0.000000	50.227026	-32.588864	-63.646549	1.000000	
414	0.000000	0.000000	0.000000	63.118521	-25.214709	-60.025551	1.000000	
415	0.000000	0.000000	0.000000	50.927167	-31.540114	-63.648291	1.000000	
416	0.000000	0.000000	0.000000	62.535545	-24.972551	-60.414385	1.000000	
417	0.000000	0.000000	0.000000	51.434412	-30.178350	-62.773437	1.000000	
[LLowerArm]
#Fr	Tx	Ty	Tz	Rx	Ry	Rz	SF
412	0.000000	0.000000	0.000000	8.734701	0.000000	0.000000	1.000000	
413	0.000000	0.000000	0.000000	30.380352	0.000000	0.000000	1.000000	
414	0.000000	0.000000	0.000000	10.298943	0.000000	0.000000	1.000000	
415	0.000000	0.000000	0.000000	30.001586	0.000000	0.000000	1.000000	
416	0.000000	0.000000	0.000000	12.422188	0.000000	0.000000	1.000000	
417	0.000000	0.000000	0.000000	29.341518	0.000000	0.000000	1.000000	
[LHand]
#Fr	Tx	Ty	Tz	Rx	Ry	Rz	SF
412	0.000000	0.000000	0.000000	23.950994	-0.000000	-0.000000	1.000000	
413	0.000000	0.000000	0.000000	7.664654	-0.000000	-0.000000	1.000000	
414	0.000000	0.000000	0.000000	23.138165	-0.000000	-0.000000	1.000000	
415	0.000000	0.000000	0.000000	8.210349	0.000000	-0.000000	1.000000	
416	0.000000	0.000000	0.000000	21.733175	-0.000000	-0.000000	1.000000	
417	0.000000	0.000000	0.000000	8.936398	-0.000000	-0.000000	1.000000	
[RClavicle]
#Fr	Tx	Ty	Tz	Rx	Ry	Rz	SF
412	0.000000	0.000000	0.000000	9.355258	1.269652	-7.846151	1.000000	
413	0.000000	0.000000	0.000000	10.463884	1.514229	-8.328731	1.000000	
414	0.000000	0.000000	0.000000	8.816361	1.205223	-7.908963	1.000000	
415	0.000000	0.000000	0.000000	9.990316	1.444462	-8.329959	1.000000	
416	0.000000	0.000000	0.000000	8.758301	1.194469	-7.891818	1.000000	
417	0.000000	0.000000	0.000000	10.065382	1.453402	-8.318138	1.000000	
[RUpperArm]
#Fr	Tx	Ty	Tz	Rx	Ry	Rz	SF
412	0.000000	0.000000	0.000000	86.516289	70.179140	58.192606	1.000000	
413	0.000000	0.000000	0.000000	79.455867	71.196217	54.094356	1.000000	
414	0.000000	0.000000	0.000000	89.771774	69.958158	61.817805	1.000000	
415	0.000000	0.000000	0.000000	83.308626	71.003368	58.202816	1.000000	
416	0.000000	0.000000	0.000000	92.089788	69.682590	64.804748	1.000000	
417	0.000000	0.000000	0.000000	86.076523	70.768475	61.529185	1.000000	
[RLowerArm]
#Fr	Tx	Ty	Tz	Rx	Ry	Rz	SF
412	0.000000	0.000000	0.000000	36.879130	0.000000	0.000000	1.000000	
413	0.000000	0.000000	0.000000	38.404325	0.000000	0.000000	1.000000	
414	0.000000	0.000000	0.000000	37.603297	0.000000	0.000000	1.000000	
415	0.000000	0.000000	0.000000	39.136289	0.000000	0.000000	1.000000	
416	0.000000	0.000000	0.000000	38.598509	0.000000	0.000000	1.000000	
417	0.000000	0.000000	0.000000	40.169123	0.000000	0.000000	1.000000	
[RHand]
#Fr	Tx	Ty	Tz	Rx	Ry	Rz	SF
412	0.000000	0.000000	0.000000	22.751004	36.623498	0.556200	1.000000	
413	0.000000	0.000000	0.000000	22.210859	37.331210	0.658656	1.000000	
414	0.000000	0.000000	0.000000	22.838866	36.156628	0.452265	1.000000	
415	0.000000	0.000000	0.000000	22.176298	36.551959	0.169018	1.000000	
416	0.000000	0.000000	0.000000	22.610496	35.272949	-0.239899	1.000000	
417	0.000000	0.000000	0.000000	21.899917	35.522799	-0.609396	1.000000	
[RUpperLeg]
#Fr	Tx	Ty	Tz	Rx	Ry	Rz	SF
412	0.000000	0.000000	0.000000	110.682029	1.010326	22.936920	1.000000	
413	0.000000	0.000000	0.000000	110.863149	0.965787	22.432128	1.000000	
414	0.000000	0.000000	0.000000	111.086178	1.090503	22.339477	1.000000	
415	0.000000	0.000000	0.000000	111.286438	1.028858	21.931730	1.000000	
416	0.000000	0.000000	0.000000	111.538747	1.121414	21.866735	1.000000	
417	0.000000	0.000000	0.000000	111.716268	1.085596	21.514500	1.000000	
[RLowerLeg]
#Fr	Tx	Ty	Tz	Rx	Ry	Rz	SF
412	0.000000	0.000000	0.000000	-100.998030	0.000000	0.000000	1.000000	
413	0.000000	0.000000	0.000000	-101.838171	-0.000000	0.000000	1.000000	
414	0.000000	0.000000	0.000000	-102.522810	-0.000000	0.000000	1.000000	
415	0.000000	0.000000	0.000000	-103.296936	-0.000000	0.000000	1.000000	
416	0.000000	0.000000	0.000000	-103.936320	0.000000	0.000000	1.000000	
417	0.000000	0.000000	0.000000	-104.670707	-0.000000	0.000000	1.000000	
[RFoot]
#Fr	Tx	Ty	Tz	Rx	Ry	Rz	SF
412	0.000000	0.000000	0.000000	32.580197	9.992155	-14.871136	1.000000	
413	0.000000	0.000000	0.000000	32.775584	10.195854	-15.013735	1.000000	
414	0.000000	0.000000	0.000000	32.996431	10.297695	-15.038097	1.000000	
415	0.000000	0.000000	0.000000	33.161664	10.499284	-15.154623	1.000000	
416	0.000000	0.000000	0.000000	33.361793	10.520833	-15.254143	1.000000	
417	0.000000	0.000000	0.000000	33.516791	10.595573	-15.470482	1.000000	
[RToes]
#Fr	Tx	Ty	Tz	Rx	Ry	Rz	SF
412	0.000000	0.000000	0.000000	-9.138826	-0.000000	0.000000	1.000000	
413	0.000000	0.000000	0.000000	-9.399708	-0.000000	0.000000	1.000000	
414	0.000000	0.000000	0.000000	-9.332754	-0.000000	0.000000	1.000000	
415	0.000000	0.000000	0.000000	-9.366327	-0.000000	0.000000	1.000000	
416	0.000000	0.000000	0.000000	-9.156592	-0.000000	0.000000	1.000000	
417	0.000000	0.000000	0.000000	-9.104153	-0.000000	0.000000	1.000000	
[LUpperLeg]
#Fr	Tx	Ty	Tz	Rx	Ry	Rz	SF
412	0.000000	0.000000	0.000000	124.676540	-39.990522	-20.059426	1.000000	
413	0.000000	0.000000	0.000000	124.419496	-40.268237	-19.409177	1.000000	
414	0.000000	0.000000	0.000000	124.404680	-40.339172	-18.879057	1.000000	
415	0.000000	0.000000	0.000000	124.241082	-40.601314	-18.341135	1.000000	
416	0.000000	0.000000	0.000000	124.299527	-40.694041	-17.962788	1.000000	
417	0.000000	0.000000	0.000000	124.164444	-40.980857	-17.516473	1.000000	
[LLowerLeg]
#Fr	Tx	Ty	Tz	Rx	Ry	Rz	SF
412	0.000000	0.000000	0.000000	-100.652509	-0.000000	-0.000000	1.000000	
413	0.000000	0.000000	0.000000	-101.367384	0.000000	-0.000000	1.000000	
414	0.000000	0.000000	0.000000	-101.974771	-0.000000	-0.000000	1.000000	
415	0.000000	0.000000	0.000000	-102.679602	-0.000000	-0.000000	1.000000	
416	0.000000	0.000000	0.000000	-103.280099	-0.000000	-0.000000	1.000000	
417	0.000000	0.000000	0.000000	-103.963128	-0.000000	-0.000000	1.000000	
[LFoot]
#Fr	Tx	Ty	Tz	Rx	Ry	Rz	SF
412	0.000000	0.000000	0.000000	35.702814	8.395026	-18.829938	1.000000	
413	0.000000	0.000000	0.000000	35.769730	8.124431	-18.736758	1.000000	
414	0.000000	0.000000	0.000000	36.017041	7.764761	-18.784937	1.000000	
415	0.000000	0.000000	0.000000	36.160770	7.358625	-18.842335	1.000000	
416	0.000000	0.000000	0.000000	36.470407	6.995326	-18.966259	1.000000	
417	0.000000	0.000000	0.000000	36.659910	6.708395	-19.057081	1.000000	
[LToes]
#Fr	Tx	Ty	Tz	Rx	Ry	Rz	SF
412	0.000000	0.000000	0.000000	2.122353	0.000000	-0.000000	1.000000	
413	0.000000	0.000000	0.000000	2.018022	0.000000	-0.000000	1.000000	
414	0.000000	0.000000	0.000000	1.743136	0.000000	-0.000000	1.000000	
415	0.000000	0.000000	0.000000	1.406063	0.000000	-0.000000	1.000000	
416	0.000000	0.000000	0.000000	1.026893	0.000000	-0.000000	1.000000	
417	0.000000	0.000000	0.000000	0.695604	0.000000	-0.000000	1.000000	
